/* XPM */
static const char * police6_xpm[] = {
"80 58 11 1",
" 	c None",
".	c #000000",
"+	c #111C2A",
"@	c #352718",
"#	c #213977",
"$	c #26405F",
"%	c #455663",
"&	c #6A553E",
"*	c #92928D",
"=	c #E8C300",
"-	c #FFFFFF",
"                        @..@@.@@..                                              ",
"                      ..@@@@......@@                                            ",
"                   &&@.@@@@@@@........                                          ",
"                 &&&&@@@&&@@&&@@@@@@...                                         ",
"                 ***&@@@&&&&&&@@&&@@......                                      ",
"                 &***@@@@@@@&@@&&&&@.......                                     ",
"                 &*-*&@@@@@@&@&&&&&&@@@@@@...                                   ",
"                 &&&&&@@@@@@&&&&&&&&&&&&&&@..................                   ",
"                  &&@@..@@@@@@&&@@&&&&**&&&@..+++++++++++++++..                 ",
"                      @@@@.@@@&@@@&&&****&&@@@+++++$$$$$$++++++..               ",
"                        @@..@@&@@&&&&****&&&&@+$$$$$$$$$$$$$+++++..........     ",
"                          ..@@@@@&&&&******&&@@$$$$$#####$$$$++++$+..........   ",
"                          ..@@@@@&&&&&*****&@@@+++$$########$$++$$$+++..@@@+..  ",
"                          ..@@@@@@&&&&&&&%%+$###$$$$+++$####$$+$#$$+$%$%****%.. ",
"                        .......@@@@@@@$%**+$###########+$$##$$+$#$$$$%***---*+..",
"                        .......@@+++$%%%%$$#############+#$$$$+$$$$$+*-%*-**-%..",
"                        .++$++.+$$$$$$+.+$##############$$##$$++$$$$$***-----%+.",
"                       .+$$$++$$$$+++..++###########**%*%$+###++$$$$$***----*%+.",
"                      +.++++.+%$.@@..++$############****%#$$###$++++%%%*****%$..",
"                     ++++++.+$%+.@@++.+#############*---%##+####$++$%%*%%%$$+.  ",
"                     ++.+$+.+%%$...+..+#############%*#*####+$###+.++++......   ",
"                    +++.+$+.$%%$.....+$#############**#*%####+###+......        ",
"                    ++++$$+.%%%+.....@$#############**#*%####+###$              ",
"                    ++.+%$++%*%+@@...@$##############***#####+###$              ",
"                    .+.+%%++%**+&@...+$#############%***%####+#&%$              ",
"                    .+.+%%$+%**$&@..@%$################*%####+#==$              ",
"   +++ +++  . ...++++..$%%$+%**$&@..&&$################%*####$$&=$              ",
" ...+++++.....++++++++.$%%++%**$&@..@@$##############****####$#$#$              ",
".+$$$$$$$+$$+++++++++++$%$+$%*%+@@...@$##############***#####$###$              ",
"+%%%#$$$$$$$++++++++++++%$+$%*%+@....@$##############****####$###$              ",
"%%*%##$$$$$$$+++++++++++$++$%%$.@@...@$##############-#%*####$###+              ",
"+%*%$$$#####$++++++++++++++$%%$.@@...@$##############***%####$###               ",
"+%*%$$$#####$$$+++++++++.+++$%$..@...+$##############*-*####+$##$               ",
"+$%$$$$$$####$$++++++++++++++$$..@...+$##############***###$$###+               ",
"   +++$$$$##$$$++++++++++$$+.+$+......+##############---*#$$##$                 ",
"    ..+$$$$$$$++++++++++++$+.+$$+++....$#################$+##+                  ",
"       $$$$++++++++++++++.+...+$$$$$$$+++################+##                    ",
"          $++++++++++++++++...@.++$+$%%%$$##############$#$ .                   ",
"            ...++++++........@@@@...++@@+$+############++  ..++                 ",
"              ........ ......@@@@@@@@@@@@@@+#########$++   @&**@.               ",
"                             @@@@@@@@@&&&&&&$##$$+++++    @&*--*@               ",
"                              @@@@@@@@&&&&&**$$@@+.       &***--*.              ",
"                              @@@@@@@@@&&&&&***&&@.      .&*----*+              ",
"                               ..@@@@@@&&&&&**&&&..      .@*----*               ",
"                                ..@@@&@&&&&&&&&&@..    ..@&**--** .             ",
"                                @@@@@@@@&&&&&&&&@..  ..@&&&&&***                ",
"                                @@@@@@@@@&&&&&*&@....@@&&&&&&&*&                ",
"                                 @@@@@@@@&&&&**&@...@&&&&&*&@@@@                ",
"                                 .@@@@@@&&&&&**&@.@@@&&&***@@..                 ",
"                                  ..@@@@@&&&&*&&.@@@@&&&&*@...                  ",
"                                   ..@@@@@&&&&&@@@@@&&&&&@@.@                   ",
"                                    ..@@@@&&@@@@@@@@&&@@@@..                    ",
"                                     ..@@@&&&&&@@@@@@@@@...                     ",
"                                     ...@@@@&@@@@@.@@@@..                       ",
"                                      ...@@@@@@@@@.@@...                        ",
"                                        ....@@@@@@....                          ",
"                                         ......@....                            ",
"                                             .....                              "};
