/* XPM */
static const char * police5_xpm[] = {
"72 58 11 1",
" 	c None",
".	c #000000",
"+	c #111B28",
"@	c #342617",
"#	c #1D336D",
"$	c #40505C",
"%	c #375E8D",
"&	c #6B563E",
"*	c #8C9193",
"=	c #E8C300",
"-	c #FFFFFF",
"                                             ...                        ",
"                                            .$*$.                       ",
"                                        ....@***&@.                     ",
"                                  ........@.@**-*&@.                    ",
"                                 ....++++@..@&&*&@.                     ",
"                                 ..@@@@@@@@@@@@&&@.                     ",
"                                ..@&&&&@@@@....@@..                     ",
"                                ..@&&&&&@@@@.......                     ",
"                                ..@@&&&&&&&@@@@@..                      ",
"                                ...@@&&&&&@@@&@@@..                     ",
"                                 ..@@@&@&&@&&&&@....                    ",
"                                  .@@@@@@&&&&&&&@....                   ",
"                                   .@@@@@@&&&&&&&&&@..                  ",
"                                   ....@@&@@@&&&&&&&@..                 ",
"                                    ...@&&@@&&&&&&&&&@..                ",
"                                    ...@@@@@&&&&***&&@..                ",
"                                    ...@@@@@&&&&&&&@@++.                ",
"                                   ....@@@@@&&&@@$+########+++          ",
"                                  .....@@@@@+#$%%+##############        ",
"                                ...++..@@+$#$$##+#############+##       ",
"                                .+$$++.+$$$$++.+###############+###     ",
"                              ..+$$$++$%$+....+############**%*#+####   ",
"                             .++.++++$%$.@..++#############****##+####  ",
"                             +++.++.+$%$...+++#############***%###+#### ",
"                            .++++$+.$%%$.....+#############*$**######## ",
"                            +++.+$+.$%%$....+##############*#%*####+### ",
"                            +++.$$+.#%%+@...+##############**-%####+###+",
"                            ++++$%++$*%+@@..+##############****####+#&#+",
"           ...            ++++.+$%#+$*%+&@..@##############%$%*####+#=&+",
"        .......... .     +++++.+$%$+***$&@..@#################*######=&+",
"  .........++++++......+++++++++$%#+**%@&@..@##############****####+#$#+",
"..+.+$++###%####+..+++++++++++++$%++**%+&@..+##############$***####+###+",
"..$$$$+%%#%%%%%%%#+#########++++$$++%%%+@...+##############****####+### ",
".$$$*$+%%##%%%%%%%#%%%%%%%%%++++$$++%%$+@....##############****####+### ",
".$$**$.$%##%%%%%%%%%%%%%%%%#++++++++$$$.@....###############**%#######+ ",
".$$*-$.#%#%%%%%%%%%%%%%%%%%%+++++++++$$.@@...##############*-*####+###  ",
".$$**$.#%%%%%%%%%%%%%%%%%%%%+++++$$++$$..@...+#############**-*##+####  ",
".++$*$++#+%%%%%%%%%%%%%%%%%%#+++++$++$$......+#############****#+###    ",
"...+$$+++.+#######%%%%%%%%%%%++++.++.+$%$++...++###############+###     ",
"      ...    +....+#%%%%%%%%%#+++......+$$$$$$###################*      ",
"                  ..#%%%%%%%#+++...@@@@@..++$$#$$#############+*-*+     ",
"                    .######++.......@@@@@@@@@@@@@++##########+**--*     ",
"                       .............@@@@@@@@@@@&&&&+#####++++$----*     ",
"                            .       +@@@@@@@@@@&&&&$++@@.. ..&*---*.    ",
"                                     ..@@@@@@@@&&&&&**&@....@@*--*@     ",
"                                      .@@@@@@@@&&&&&*&&..@@&@@&**$+     ",
"                                       @@@@@@@@@&&&&&&@.@@&&&@&&&       ",
"                                       .@@@@@@@&&&&&&@.@@&&&&@@@        ",
"                                       ..@@@@@&&&&&&&@.@@&&&&@..        ",
"                                        ..@@@@&&&&&&&@.@@&&&@@.         ",
"                                        ...@@@&&&&&&&@.@@@&&@.          ",
"                                         ..+@@@@&&&&&@.@@@@@.           ",
"                                          ..@@@&&&@@@@.@@@@.            ",
"                                           ..@@@&&&&@@.@@@@             ",
"                                            ..@@@@@@&&@@..              ",
"                                             ...@@@@@@..                ",
"                                              ....@.@..                 ",
"                                                .....                   "};
