/* XPM */
static const char * police3_xpm[] = {
"80 58 11 1",
" 	c None",
".	c #000000",
"+	c #111C2A",
"@	c #362718",
"#	c #1D336D",
"$	c #455764",
"%	c #375C88",
"&	c #6A563E",
"*	c #94938E",
"=	c #E8C300",
"-	c #FFFFFF",
"                                             ....                               ",
"                                          .....@@...                            ",
"                                        ....@@@@@@.....                         ",
"                                       ...@@@@@@@@..@...                        ",
"                                      ..@@@@&@@@@@..@@@..                       ",
"                                     ..@@@&&&&&@@@@@@@@@...                     ",
"                                    ..@@@@&&@@@@@@@@&&&@@@...                   ",
"                                   ..@@@@@&&&&&&@@@@&&&&&@@..                   ",
"                                  ..@@@@@&&&&*&&@@@@@&&&&*@...                  ",
"                                  @@@@@@@&&&&**&@..@@&&&&**@@..                 ",
"                                 @@@@@@@@&&&&&*&@...@&&&&&*&@@@@                ",
"                                 @@@@@@@@&&&&&*&@.....@@&&&&&&**                ",
"                                 @@@@@@@&&&&&&&&@..   +@@@@&&*-**               ",
"                                ..@@@@@@&&&&&&&&@..     .@&**---*               ",
"                               @..@@@@@&&&&&***&&@.      .@**---*$              ",
"                               @@@@@@@@&&&&&***&&@.       @*----*@              ",
"                              @@@@@@@@@&&&&&$@$$@+++      @***--*@              ",
"                             @@@@@@@@@@&&&&@#########++++  &**-*@               ",
"              ................@@@@@@@@@@@@+#############+#+ $&*@.               ",
"            ...+++++++.......@@@@...++++$#+#############+### ..                 ",
"           ++++++++++++++++...@.++++$$$%#+####################                  ",
"        ####+++++++++++++..+..+#$$$$$$+++############**%*#+####                 ",
"     .+%%%%%%#++++++++++++$+.+$$+++....+#############**#*##+####+               ",
"   +++%%%%%%%%%++++++++++#$+.#$+......+##############-***###+####               ",
"++$++%%%%%%%%%%+++++++++++++.#$..@@...+##############*%**####+####              ",
"+$*$#%%%%%%%%%++++++++++.+++#$$..@....+##############*##*#########              ",
"$$*$%%%%%%%%%+++++++++++++++$%#.@@....+##############*%**#########              ",
"+$$%%%%%%%%%#+++++++++++$#++%%$+@@...@+##############$**%#########              ",
".#$$%%%%%#%#++++++++++++$$#+%%%+@@...&+##############****######$&&              ",
".++######+++++++++++++++$%#+%%%+@@...@+#################*######&=&              ",
"   .++++++.....+++++++.+%%++%*%#&@..@@+#################*#######&$              ",
"                  +++..+%%#+%**#&@..@&+##############****#####+###              ",
"                    .+.+%%#+$**#&@...&+###############--*#####+###              ",
"                    .+.+$%#+$%%#@@....+##############**%*#####+###              ",
"                     +++$$+.$%%#@@...@+##############***-#####+##+              ",
"                     +++$$+.+%%#.@...@+###############**%########+              ",
"                     ++++$+.+$%#.....@+##############*--####+####.......        ",
"                     ++++$+.+$%#...+..+##############**-*#######+++.++++.+++.   ",
"                     ++++++..#%#.@@++.+##############****##+###++++#$$$*$$$$$+  ",
"                      +.++++.+$$+@@..+.+##################+##+++++++$$$*****$$. ",
"                       .++$$+++$#++++...+################+##+++++###$***-----$+.",
"                        .++#++.++#$$$$++.+##############+##%%+++++%#+*-*-----*+.",
"                        .......@@.++#$%%%%#+###########++%%%%++#%%%#+$-**-**-$..",
"                         ......@@@@@@@+#%***+#########+#%%%%%%+#%%%#+$*$*---*$..",
"                          ..@@@@@@&&&&&&&$$$$+##++++#%%%%%%%%%+#%%#+$$$+****$.. ",
"                          ..@@.@@@&&&&&****&&@@++###%%%%%%%%%+++##+++++.++++..  ",
"                          ..@@@.@&&&&*******&@@+#%#%%%%%%%%%#++++++.........    ",
"                        @@..@@@@@@&&&****&&&&@+%$#+%%%%%%%%#+++++.......        ",
"                      @@@@@.@@&&@@&&&****&&@@@+++++++#%%%++++++..               ",
"                  &&@@..@@@@@@&&@@&&&&**&&&@..+..+++++++++++++                  ",
"                 &&&&&@@@@@@&&&&&&&&&&&&&&@..................                   ",
"                 &*-*&@@@@@@&&@&&&&&@@@@@@..                                    ",
"                 &***&@@@@@@&@@@&&&@@......                                     ",
"                 &***@@@&&&&&&@@@&@@.....                                       ",
"                  &&&@@@&&@@&@@@@@@@...                                         ",
"                    &@.@@@@@@.........                                          ",
"                      ...@@@......@                                             ",
"                         ..@..@@.                                               "};
