/* XPM */
static const char * police2_xpm[] = {
"71 58 11 1",
" 	c None",
".	c #000000",
"+	c #111B28",
"@	c #352718",
"#	c #1D336D",
"$	c #3F4F5A",
"%	c #365D8B",
"&	c #6C563E",
"*	c #8C9395",
"=	c #E8C300",
"-	c #FFFFFF",
"                                                ...                    ",
"                                              ...@....                 ",
"                                             ..+@@@@@..                ",
"                                            ..@@@@@@&@..               ",
"                                           ..@@&&&&@&@@@@.             ",
"                                          ..@@@&&&@@@@@@@@@            ",
"                                         ..@@@@&&&&&@+@@@@@.           ",
"                                        ..@@@@@&&&&&@.@@@@@@@          ",
"                                        .+@@@@&&&&&&&@@@@&&@@.         ",
"                                       .+@@@@@&&&&&&&@.@@&&&@@         ",
"                                       .@@@@@@@&&&&&&@.@@&&&&@@.       ",
"                                      ..@@@@@@@&&&&&&@..@&&&&@&@       ",
"                                      .@@@@@@@&&&&&&&&+..@&&&@&*$      ",
"                                    ..@@@@@@@&&&&&&*&&...@@@@&*-*.     ",
"                                   .@@@@@@@@@@&&&&&*&&@.. ..&*---@     ",
"                    ..++++..........@@@@@@@@@@@&&@####++++++$*---&     ",
"                   .+%%%%##++......@@@@@@...@@+@+###########+$*--*     ",
"  ..........+.....+#%%%%%#%%#+++..@.@@@.++++$$%$#############+#**$     ",
"...$$+.++.+#%##++%%%%%%%%%%%#++++....+$$$$$$$$@+##############+##+     ",
"+$+**++%##%%%%%%%%%%%%%%%%%%+++++$$.+$$+++...++###########**%*#+###    ",
"$$$**++%%%%%%%%%%%%%%%%%%%%#+++++$++$$.......+############**%*##+####  ",
"$*$-*++%%#%%%%%%%%%%%%%%%%%++++++$++$$..@...+#############****#######+ ",
"$*$**++%%#%%%%%%%%%%%%%%%%%+++++++++$$.+@...+#############*%*%######## ",
"+$$**+#%%#%%%%%%%%%%%%%%%%%++++++++$$$+@....+#############*##*####+### ",
".$$$$$#%%#%%%%%%##%%%%%%%%%+++++$++%%%+@....+#############****####+###+",
"....++++++%%%#+++.++#######++++$$$+%%%+@....+#############%**%####+#$#+",
" ..........+++++....+++++++++++$%++%**@&@..@+#############****####+#=&+",
"         ....+...  ....++++++.+$%$+%**$&@..@+################*#####$=&+",
"                        .++++.+$%$+%**$&@..&+#############****######&#+",
"                           +++.$%$+$**$&@..++##############**%####+###+",
"                           .++.#%#+#**$@@...+#############*-**####+### ",
"                           .++.+$+.$%%$@...@+#############**#*####+### ",
"                            ++++$+.$%%$.....+#############$***####+### ",
"                            ++++$+.$%%$.....+#############*-*####+###+ ",
"                             +++++.+$$$+@.+++#############****#######  ",
"                             +.++$++$$$+@@.++#############**-*#####    ",
"                               .+$$++$$$$++..+#################+##     ",
"                                .++++.++$$%$+++###############+##      ",
"                                ......@@.+@$%%$$#############+#+       ",
"                                  .....@@@@@@$$%++##########++         ",
"                                   ...@.@@@@&&&&&@#######+++           ",
"                                   ...@@.@@@&&&***$+++++               ",
"                                   ...@@@@@&&&&***&&@..                ",
"                                   ...@@&@@@&&&&&&&&@..                ",
"                                   ...@@@&&@@&&&&&&@..                 ",
"                                 ..@@@@@&&&&&&&@@.@..                  ",
"                                ..@@@@@&&&&&&&......                   ",
"                               ..@@@&&&&@@@&&@...                      ",
"                              ...@@&&&&&&@@@@@@..                      ",
"                              ...@@&&&&&&@@@@...                       ",
"                              ...@&&&&@@@......                        ",
"                               ..@&&&@@@@@@..@@@                       ",
"                                ..+@@@@@@@@@@&&@.                      ",
"                                 ........@@&&**&@                      ",
"                                      ..@+@&***&+                      ",
"                                          .@&*@.                       ",
"                                          ..@@                         ",
"                                           ..                          "};
