/* XPM */
static const char * police1_xpm[] = {
"43 58 11 1",
" 	c None",
".	c #000000",
"+	c #352617",
"@	c #1E3473",
"#	c #283C4E",
"$	c #314A69",
"%	c #6F583F",
"&	c #A08B6F",
"*	c #6F98BD",
"=	c #E8C300",
"-	c #FFFFFF",
"               ..+.                        ",
"            ...++++++                      ",
"           ...++++%%+                      ",
"           ..++++++%+.                     ",
"           ..++++++++.                     ",
"          ..++++++%%+..                    ",
"          ..+++++%%%%..                    ",
"         ..+++++%%%&%+..                   ",
"         ..+++++%%%%%+..                   ",
"         ..++++++%%%%%+..                  ",
"         ..++++++%%%%%%+..                 ",
"        ..+++++++%%%%%%%+.                 ",
"        .++++++++%%%&&&%+..                ",
"       .+++++++++%%%&&&%%+.                ",
"       ++++++++++%%%&&&%%+..               ",
"      .+++++++++++%%%%++++..               ",
"      ..+++++++++..+.+@@@@####+.#          ",
"     ...+++.+++##$$*#@@@@@@@@@@@###        ",
"    .....+##$#$#####@@@@@@@@@@@@@+@@       ",
"   .+#..#$###++....@@@@@@@@@@@@@@$#@@#     ",
"  ..##++##........#@@@@@@@@@@@**$*@#@@@#   ",
"  ..###+#+.++....#@@@@@@@@@@@@**$*@@#@@@@  ",
"  ..####$#.+.....@@@@@@@@@@@@@****@@@#@@@# ",
"  ...##$$#.+...+.@@@@@@@@@@@@@*$**@@@@#@@@ ",
" .#####**$.+...+#@@@@@@@@@@@@@*@$*@@@@#@@@ ",
" .#$$##**$.+...+#@@@@@@@@@@@@@**-*@@@@#@@@#",
" .#$$##**$+%...+#@@@@@@@@@@@@@****@@@@#@%@#",
"..#$*##**$+%+.++#@@@@@@@@@@@@@$$$*@@@@#@=&#",
"..#**##**$+%..+%#@@@@@@@@@@@@@@@@*@@@@##=%#",
"..#$$##**$+%...+#@@@@@@@@@@@@@****@@@@#@#@#",
" .#$$##$*$+%+...#@@@@@@@@@@@@@$***@@@@#@@@#",
" .#$$#.$*$.+...+#@@@@@@@@@@@@@****@@@@#@@@ ",
" ..##+.$*$.....+#@@@@@@@@@@@@@****@@@@#@@@ ",
" ..##..#$$......#@@@@@@@@@@@@@@**$@@@@#@@# ",
"  .+#..#$$.++...#@@@@@@@@@@@@@*-*@@@@.@@@  ",
"  .###.+$$#++....@@@@@@@@@@@@@**-*@@#@@@@  ",
"  #####.#$$#+....#@@@@@@@@@@@@****@#@@@    ",
"   .+###..##$$##..#@@@@@@@@@@@@@@@##@@     ",
"   .........+##$$$$#@@@@@@@@@@@@@@#@       ",
"      ...++....#$$*$#@@@@@@@@@@@@##        ",
"      ...++++++++++#.#@@@@@@@@@@##         ",
"      ...+++++++++%%%%#@@@@##...           ",
"       ...+++++++%%%&&%+++..               ",
"        ..+++++++%%%&&&&%%+.               ",
"         ...+++++%%%&&&&%+..               ",
"         .....+++%%%%&&&%...               ",
"          .++++.+%%%%%%%+..                ",
"          .+++%+++%%%%+...                 ",
"          +.++++%%%%%+....                 ",
"           .++++%%%&%++..                  ",
"           ..++++%%%%++.                   ",
"           ..++++++++...                   ",
"            .+++++++...                    ",
"            .+++++....                     ",
"             ++++%++.                      ",
"             .+++++..                      ",
"              .++++.                       ",
"               ....                        "};
