/* XPM */
static const char * cursor_xpm[] = {
"40 40 11 1",
" 	c None",
".	c #000000",
"+	c #232523",
"@	c #3C3E3B",
"#	c #545653",
"$	c #6D6F6C",
"%	c #8A8C89",
"&	c #A3A5A2",
"*	c #BEC0BD",
"=	c #DADDD9",
"-	c #FCFEFB",
"                                        ",
"       .                                ",
"       ..                               ",
"       ...                              ",
"       ....                             ",
"       .#$+.                            ",
"       .&=%+.                           ",
"       .&-=&+.                          ",
"       .&--=&@.                         ",
"       .&---=&@..                       ",
"       .&----=&@..                      ",
"       .&-----=*#..                     ",
"       .&-------*#..                    ",
"       .&--------*$..                   ",
"       .&---------*$+.                  ",
"       .&----------=%+.                 ",
"       .&-----------=%+.                ",
"       .&------------=%+..              ",
"       .&-------------=%@..             ",
"       .&--------------=&@..            ",
"       .&----------------&@..           ",
"       .&-----------------&@..          ",
"       .&-----------------=%+..         ",
"       .&----------*&&&&%%%#+...        ",
"       .&---------=%++..........        ",
"       .&-----=*---*@...                ",
"       .&----=%#=--=%..                 ",
"       .&---=$.+*---*+.                 ",
"       .&--=$+..%=--=$.                 ",
"       .&-=$....@*---&+.                ",
"       .&*#..  ..%=--=#.                ",
"       .#@..    .@=--=%..               ",
"       ....     .+%---*@.               ",
"       ...       .#=---%..              ",
"       ..        ..&---*@.              ",
"       .         ..$=-=*@.              ",
"                  .+&*%@...             ",
"                  ..@@...               ",
"                   ....                 ",
"                   ..                   "};
